<svg xmlns="http://www.w3.org/2000/svg" viewBox="0 0 256 256" role="img" aria-label="CashFlowArc">
  <rect width="256" height="256" rx="36" fill="#ffffff"/>
  <path d="M31 183C50 92 116 27 210 33C145 43 83 83 43 183H31Z" fill="#004071"/>
  <path d="M53 204C92 188 145 180 215 190C151 191 96 197 42 216L53 204Z" fill="#004071"/>
  <path d="M54 204C97 184 157 177 222 189C157 186 101 190 51 207L54 204Z" fill="#1ab69a"/>
  <rect x="89" y="126" width="18" height="42" rx="2" fill="#00689a"/>
  <rect x="121" y="105" width="18" height="63" rx="2" fill="#098f9d"/>
  <rect x="153" y="83" width="18" height="85" rx="2" fill="#13aa99"/>
  <rect x="185" y="58" width="18" height="110" rx="2" fill="#21c392"/>
</svg>
