<svg xmlns="http://www.w3.org/2000/svg" viewBox="0 0 360 205">
  <defs>
    <pattern id="grid" width="16" height="16" patternUnits="userSpaceOnUse">
      <path d="M 16 0 L 0 0 0 16" fill="none" stroke="#1f4058" stroke-width="1"/>
    </pattern>
  </defs>
  <rect width="360" height="205" rx="18" fill="#0e314c"/>
  <rect width="360" height="205" rx="18" fill="url(#grid)" opacity="0.45"/>

  <g>
    <rect x="12" y="158" width="16" height="36" fill="#7cc943"/>
    <rect x="30" y="150" width="16" height="20" fill="#7cc943"/>
    <rect x="48" y="121" width="16" height="48" fill="#7cc943"/>
    <rect x="66" y="99" width="16" height="45" fill="#7cc943"/>
    <rect x="84" y="85" width="16" height="28" fill="#7cc943"/>

    <rect x="102" y="104" width="16" height="26" fill="#ff3b30"/>
    <rect x="120" y="117" width="16" height="22" fill="#ff3b30"/>
    <rect x="138" y="108" width="16" height="44" fill="#ff3b30"/>
    <rect x="156" y="123" width="16" height="19" fill="#ff3b30"/>
    <rect x="174" y="124" width="16" height="47" fill="#ff3b30"/>

    <rect x="192" y="92" width="16" height="62" fill="#7cc943"/>
    <rect x="210" y="81" width="16" height="31" fill="#7cc943"/>
    <rect x="228" y="52" width="16" height="64" fill="#7cc943"/>
    <rect x="246" y="70" width="16" height="36" fill="#7cc943"/>
    <rect x="264" y="53" width="16" height="52" fill="#7cc943"/>

    <rect x="282" y="56" width="16" height="66" fill="#ff3b30"/>
    <rect x="300" y="34" width="16" height="54" fill="#7cc943"/>
    <rect x="318" y="26" width="16" height="18" fill="#7cc943"/>
    <rect x="336" y="9" width="16" height="26" fill="#7cc943"/>
  </g>
</svg>
